<?xml version="1.0" standalone="no"?><!DOCTYPE svg PUBLIC "-//W3C//DTD SVG 1.1//EN" "http://www.w3.org/Graphics/SVG/1.1/DTD/svg11.dtd"><svg t="1677567589413" class="icon" viewBox="0 0 1025 1024" version="1.1" xmlns="http://www.w3.org/2000/svg" p-id="15475" xmlns:xlink="http://www.w3.org/1999/xlink" width="200.1953125" height="200"><path d="M960.00128 0l63.99872 0 0 735.99552c0 88.369433-100.288554 160.00704-224.00576 160.00704s-224.00576-71.637607-224.00576-160.00704c0-88.369433 100.288554-160.00704 224.00576-160.00704 62.688026 0 119.334573 18.390672 160.00704 48.045119l0-368.038719-511.98976 113.784604 0 494.213476c0 88.369433-100.288554 160.00704-224.00576 160.00704s-224.00576-71.637607-224.00576-160.00704c0-88.369433 100.288554-160.00704 224.00576-160.00704 62.688026 0 119.334573 18.390672 160.00704 48.045119l0-624.033599 575.98848-127.99744z" fill="#ffffff" p-id="15476"></path></svg>